<?xml version="1.0" encoding="utf-8"?>
<svg viewBox="100 100 178 90.779" xmlns="http://www.w3.org/2000/svg" fill="#9EFF7B">
  <path d="M 100 105 C 100 102.239 102.238 100 105 100 L 273 100 C 275.761 100 278 102.239 278 105 L 278 133 L 100 133 L 100 105 Z" />
  <path d="M 278 129.779 C 278 137.789 275.698 145.722 271.225 153.122 C 266.753 160.523 260.197 167.248 251.933 172.912 C 243.668 178.577 233.857 183.07 223.059 186.135 C 212.261 189.201 200.688 190.779 189 190.779 C 177.312 190.779 165.739 189.201 154.941 186.135 C 144.143 183.07 134.332 178.577 126.067 172.912 C 117.803 167.248 111.247 160.523 106.774 153.122 C 102.302 145.722 100 137.789 100 129.779 L 189 129.779 L 278 129.779 Z"/>
</svg>